<?xml version="1.0" encoding="UTF-8"?>
<svg width="145px" height="198px" viewBox="0 0 145 198" version="1.1" 
    xmlns="http://www.w3.org/2000/svg" 
    xmlns:xlink="http://www.w3.org/1999/xlink">
    <!-- Generator: Sketch 54.1 (76490) - https://sketchapp.com -->
    <defs>
        <rect id="path-1" x="0" y="0" width="155" height="212"></rect>
        <rect id="path-3" x="0" y="0" width="234" height="275"></rect>
        <polygon id="path-5" points="0 0 241 0 241 285 0 285"></polygon>
    </defs>
    <g id="Designs" stroke="none" stroke-width="1" fill="none" fill-rule="evenodd">
        <g id="34" transform="translate(-175.000000, -370.000000)">
            <g id="BG-Pattern-Iris" transform="translate(165.000000, 356.000000)">
                <mask id="mask-2" fill="white">
                    <use xlink:href="#path-1"></use>
                </mask>
                <g id="Mask"></g>
                <g id="3-B-BG" mask="url(#mask-2)">
                    <mask id="mask-4" fill="white">
                        <use xlink:href="#path-3"></use>
                    </mask>
                    <g id="Mask"></g>
                    <g id="Group-3" mask="url(#mask-4)">
                        <g transform="translate(10.000000, 4.000000)">
                            <mask id="mask-6" fill="white">
                                <use xlink:href="#path-5"></use>
                            </mask>
                            <g id="Clip-2" stroke="none" fill="none"></g>
                            <path d="M-11.4464064,305.196976 L-17.728517,281.511437 L-17.7458432,281.516013 C-17.6135185,281.480762 -4.35471996,277.892408 9.94365132,270.099819 C22.1346796,263.455951 37.7150207,252.268213 42.7068382,236.701168 C44.9799692,229.61276 44.9696075,222.173871 42.6752434,213.959621 C39.835783,203.794173 33.4651728,192.677277 23.7405817,180.91806 C6.3479528,159.886712 -1.70635754,135.762226 0.448547578,111.152863 C1.4402184,99.8266619 4.57031745,88.6631593 9.75153421,77.9719914 C14.7238172,67.7121444 21.4649027,58.1295308 29.7872597,49.4905695 C40.0759719,38.8105871 52.2867045,30.0285866 66.0804074,23.3889549 C80.3437865,16.5232398 95.5971378,12.3030732 111.417158,10.8452252 C128.270636,9.29213061 145.222296,10.9465729 161.800933,15.762454 C179.591215,20.930171 196.700509,29.6889531 212.653364,41.7952606 L212.681561,41.8166148 L258.745843,76.9830884 L243.823049,96.4411734 L197.776093,61.287919 C171.791872,41.5723973 142.711524,32.5660082 113.675511,35.2422321 C100.786508,36.4299325 88.3632746,39.8664338 76.7511456,45.4559811 C65.5952735,50.8258851 55.7510975,57.8956514 47.4921001,66.4688553 C40.9640251,73.2450861 35.7046706,80.703804 31.8594406,88.6377376 C27.9809172,96.6408182 25.6435772,104.933367 24.9121393,113.285233 C24.1521641,121.96436 25.1451939,130.629252 27.8635406,139.038909 C30.809676,148.153595 35.7955482,156.997455 42.6822078,165.325085 C54.6218362,179.762899 62.5832305,193.930226 66.3450568,207.433878 C69.9105194,220.232841 69.8174335,232.620143 66.0685169,244.251913 C62.6538942,254.846309 56.2217929,264.713306 46.9509108,273.578859 C39.9302278,280.292553 31.2528533,286.457816 21.1601652,291.903307 C4.35102197,300.972912 -10.8092434,305.028854 -11.4464064,305.196976" id="Fill-1" stroke="none" fill="#455379" fill-rule="evenodd" mask="url(#mask-6)"></path>
                        </g>
                    </g>
                </g>
            </g>
        </g>
    </g>
</svg>