<?xml version="1.0" encoding="UTF-8"?>
<svg width="64px" height="64px" viewBox="0 0 64 64" version="1.1" 
    xmlns="http://www.w3.org/2000/svg" 
    xmlns:xlink="http://www.w3.org/1999/xlink">
    <!-- Generator: Sketch 53.2 (72643) - https://sketchapp.com -->
    <g id="Assets" stroke="none" stroke-width="1" fill="none" fill-rule="evenodd">
        <path d="M13.9487179,0 C10.7948308,0 8.20512821,2.58970256 8.20512821,5.74358974 L8.20512821,8.20512821 L4.92307692,8.20512821 C2.22432821,8.20512821 0,10.4294564 0,13.1282051 L0,49.2307692 C0,51.9295179 2.22432821,54.1538462 4.92307692,54.1538462 L36.7433846,54.1538462 C38.5061744,59.8365538 43.7979077,64 50.0512821,64 C57.7339897,64 64,57.7339897 64,50.0512821 C64,42.3685744 57.7339897,36.1025641 50.0512821,36.1025641 C42.3685744,36.1025641 36.1025641,42.3685744 36.1025641,50.0512821 C36.1025641,50.3301251 36.1378215,50.5961518 36.1538462,50.8717949 L4.92348718,50.8717949 C3.98441026,50.8717949 3.28246154,50.1698708 3.28246154,49.2307692 L3.28246154,25.4358974 L50.8722051,25.4358974 L50.8722051,31.1794872 C50.8657969,31.6185928 51.0356677,32.0416821 51.34336,32.3557744 C51.6542605,32.6666749 52.0741251,32.8429538 52.5132472,32.8429538 C52.9523692,32.8429538 53.3722421,32.6666749 53.6831344,32.3557744 C53.9908267,32.0416738 54.1606974,31.6185928 54.1542892,31.1794872 L54.1542892,13.1282051 C54.1542892,10.4294564 51.929961,8.20512821 49.2312123,8.20512821 L45.949161,8.20512821 L45.949161,5.74358974 C45.949161,2.58970256 43.3594585,0 40.2055713,0 C37.0516841,0 34.4619815,2.58970256 34.4619815,5.74358974 L34.4619815,8.20512821 L19.6927508,8.20512821 L19.6927508,5.74358974 C19.6927508,2.58970256 17.1030482,0 13.949161,0 L13.9487179,0 Z M13.9487179,3.28205128 C15.3397333,3.28205128 16.4102564,4.35257436 16.4102564,5.74358974 L16.4102564,12.3076923 C16.4102564,13.6987077 15.3397333,14.7692308 13.9487179,14.7692308 C12.5577026,14.7692308 11.4871795,13.6987077 11.4871795,12.3076923 L11.4871795,5.74358974 C11.4871795,4.35257436 12.5577026,3.28205128 13.9487179,3.28205128 Z M40.2051282,3.28205128 C41.5961436,3.28205128 42.6666667,4.35257436 42.6666667,5.74358974 L42.6666667,12.3076923 C42.6666667,13.6987077 41.5961436,14.7692308 40.2051282,14.7692308 C38.8141128,14.7692308 37.7435897,13.6987077 37.7435897,12.3076923 L37.7435897,5.74358974 C37.7435897,4.35257436 38.8141128,3.28205128 40.2051282,3.28205128 Z M4.92307692,11.4871795 L8.20512821,11.4871795 L8.20512821,12.3076923 C8.20512821,15.4615795 10.7948308,18.0512821 13.9487179,18.0512821 C17.1026051,18.0512821 19.6923077,15.4615795 19.6923077,12.3076923 L19.6923077,11.4871795 L34.4615385,11.4871795 L34.4615385,12.3076923 C34.4615385,15.4615795 37.051241,18.0512821 40.2051282,18.0512821 C43.3590154,18.0512821 45.9487179,15.4615795 45.9487179,12.3076923 L45.9487179,11.4871795 L49.2307692,11.4871795 C50.1698462,11.4871795 50.8717949,12.1891036 50.8717949,13.1282051 L50.8717949,22.1538462 L3.28205128,22.1538462 L3.28205128,13.1282051 C3.28205128,12.1891282 3.98397538,11.4871795 4.92307692,11.4871795 Z M50.0512821,39.3846154 C55.9615179,39.3846154 60.7179487,44.1410462 60.7179487,50.0512821 C60.7179487,55.9615179 55.9615179,60.7179487 50.0512821,60.7179487 C44.1410462,60.7179487 39.3846154,55.9615179 39.3846154,50.0512821 C39.3846154,44.1410462 44.1410462,39.3846154 50.0512821,39.3846154 Z M54.0256821,45.1026051 C53.5961928,45.147479 53.1987692,45.3590154 52.9230769,45.6923487 L48.1795282,51.1282462 L46.1026462,49.5641846 C45.7629046,49.2436759 45.3013662,49.0866215 44.8333949,49.1282872 C44.3686482,49.1667528 43.9424,49.4071303 43.6635077,49.7821374 C43.3846154,50.1571446 43.2788923,50.6315323 43.37184,51.0898708 C43.4647877,51.5482092 43.7500472,51.9456656 44.1538872,52.1795938 L47.4359385,54.6411323 C48.1186297,55.1475446 49.0769641,55.0481805 49.6410667,54.4103631 L55.3846564,47.8462605 C55.8205538,47.3654892 55.9327344,46.6763733 55.6699159,46.0834708 C55.4102974,45.490519 54.8270031,45.1059118 54.1795364,45.1027118 C54.1282544,45.0995036 54.0769723,45.0995036 54.0256903,45.1027118 L54.0256821,45.1026051 Z" id="EmptyState-NoApproved" fill="#AAB1B9"></path>
    </g>
</svg>