<?xml version="1.0" encoding="UTF-8"?>
<svg width="93px" height="54px" viewBox="0 0 93 54" version="1.1" 
    xmlns="http://www.w3.org/2000/svg" 
    xmlns:xlink="http://www.w3.org/1999/xlink">
    <!-- Generator: Sketch 53.2 (72643) - https://sketchapp.com -->
    <g id="Assets" stroke="none" stroke-width="1" fill="none" fill-rule="evenodd">
        <path d="M92.796596,40.1363 C92.796596,36.3785 91.687196,32.7027 89.605196,29.5703 C87.523196,26.4414 84.562196,23.9922 81.097396,22.5391 C85.429396,19.3243 87.210696,13.6953 85.515396,8.5781 C83.823996,3.457 79.038796,0 73.648396,0 C68.257996,0 63.472396,3.457 61.781396,8.5781 C60.086096,13.6953 61.867336,19.3241 66.199396,22.5391 C61.609596,24.5079 57.980596,28.211 56.097396,32.8361 L53.796596,31.6369 C58.128596,28.426 59.909896,22.7971 58.218496,17.6759 C56.523196,12.5587 51.741896,9.1017 46.347496,9.1017 C40.956896,9.1017 36.171496,12.5587 34.480496,17.6759 C32.789096,22.797 34.570346,28.4259 38.898496,31.6369 L36.597696,32.8361 C34.695396,28.2463 31.070396,24.5861 26.499696,22.6371 C30.827796,19.4262 32.609096,13.7973 30.917696,8.6761 C29.222396,3.5589 24.441096,0.1019 19.046696,0.1019 C13.656096,0.1019 8.870696,3.5589 7.179696,8.6761 C5.4883,13.7972 7.269546,19.4261 11.597696,22.6371 C8.167996,24.1019 5.238301,26.5394 3.1797,29.6527 C1.1172,32.7621 0.0117,36.4066 -5.68434189e-14,40.1367 L-5.68434189e-14,44.6367 L4,44.6367 L4,40.1367 C4.015626,35.332 6.3164,30.8203 10.199196,27.9887 C14.078096,25.1567 19.078096,24.3403 23.656196,25.7934 C28.238196,27.2426 31.855396,30.7856 33.398396,35.3364 C29.558596,38.9419 27.386696,43.9731 27.398396,49.2384 L27.398396,53.7384 L31.398396,53.7384 L31.398396,49.2384 C31.054646,45.0353 32.488196,40.879 35.343696,37.7774 C38.203096,34.6758 42.230396,32.9102 46.448696,32.9102 C50.666996,32.9102 54.690896,34.6758 57.550696,37.7774 C60.410096,40.879 61.839796,45.0352 61.499896,49.2384 L61.499896,53.7384 L65.499896,53.7384 L65.499896,49.2384 C65.511616,43.9728 63.335796,38.9414 59.499896,35.3364 C61.105396,30.8794 64.714696,27.438 69.242096,26.0356 C73.769396,24.6372 78.687396,25.44185 82.531096,28.2153 C86.374896,30.9848 88.695196,35.3989 88.796696,40.1373 L88.796696,44.6373 L92.796696,44.6373 L92.796596,40.1363 Z M10.597606,12.6363 C10.597606,9.1988 12.667906,6.1011 15.843706,4.7847 C19.023396,3.4683 22.679596,4.19486 25.109306,6.6285 C27.539006,9.0582 28.265506,12.7144 26.953106,15.8902 C25.636706,19.066 22.535106,21.1363 19.097606,21.1363 C14.402296,21.1363 10.597606,17.3316 10.597606,12.6363 Z M37.898606,21.7379 C37.859536,18.2887 39.902506,15.1598 43.074406,13.8121 C46.250206,12.4644 49.922106,13.16757 52.371306,15.5894 C54.824406,18.0152 55.570506,21.6792 54.261906,24.8667 C52.949406,28.0542 49.843906,30.1362 46.398606,30.1362 C41.742406,30.1362 37.953306,26.394 37.898606,21.7378 L37.898606,21.7379 Z M65.199606,12.6363 C65.199606,9.1988 67.269906,6.1011 70.445706,4.7847 C73.621506,3.4683 77.277706,4.19486 79.707406,6.6285 C82.141006,9.0582 82.867606,12.7144 81.551206,15.8902 C80.234806,19.066 77.137106,21.1363 73.699606,21.1363 C69.004306,21.1363 65.199606,17.3316 65.199606,12.6363 Z" id="EmptyState-NoResponses" fill="#AAB1B9"></path>
    </g>
</svg>