<?xml version="1.0" encoding="utf-8"?>
<!-- Generator: Adobe Illustrator 23.0.2, SVG Export Plug-In . SVG Version: 6.00 Build 0)  -->
<svg version="1.1" id="Layer_1" 
	xmlns="http://www.w3.org/2000/svg" 
	xmlns:xlink="http://www.w3.org/1999/xlink" x="0px" y="0px" viewBox="0 0 841.89 595.28" style="enable-background:new 0 0 841.89 595.28;" xml:space="preserve">
	<path class="st0" d="M554.75,301.58c0.25-1.04,0.49-2.01,0.74-2.92c0.25-0.91,0.51-1.76,0.78-2.55c0.27-0.79,0.53-1.43,0.78-1.92
	c2.27-4.44,4.7-8.99,7.29-13.66c2.59-4.66,5.17-9.4,7.74-14.21c2.57-4.81,5.03-9.66,7.4-14.55c2.37-4.89,4.45-9.76,6.26-14.62
	c1.8-4.86,3.23-9.7,4.29-14.51c1.06-4.81,1.59-9.54,1.59-14.18c0-2.07-0.16-4.11-0.48-6.11c-0.32-2-0.88-3.79-1.67-5.37
	c-0.79-1.58-1.88-2.85-3.26-3.81c-1.38-0.96-3.13-1.44-5.26-1.44c-3.11,0-6.17,0.94-9.18,2.81c-3.01,1.88-5.9,4.45-8.66,7.74
	c-2.76,3.28-5.4,7.13-7.92,11.55c-2.52,4.42-4.85,9.17-7,14.25c-2.15,5.08-4.07,10.39-5.77,15.92c-1.7,5.53-3.17,11.03-4.4,16.51
	c-1.23,5.48-2.17,10.8-2.81,15.95c-0.64,5.16-0.96,9.93-0.96,14.32c0,4.53,0.31,8.9,0.92,13.11c-0.9,0.74-1.83,1.48-2.84,2.25
	c-2.76,2.1-5.7,4.03-8.81,5.81s-6.3,3.26-9.59,4.44c-3.28,1.18-6.4,1.78-9.36,1.78c-0.94,0-1.81-0.1-2.63-0.3
	c-0.81-0.2-1.59-0.54-2.33-1.04c-0.74-0.49-1.47-1.18-2.18-2.07c-0.72-0.89-1.44-2-2.18-3.33c4.29-1.18,8.28-2.84,11.96-4.96
	c3.68-2.12,6.85-4.54,9.51-7.25c2.67-2.71,4.75-5.6,6.26-8.66c1.51-3.06,2.26-6.12,2.26-9.18c0-2.81-0.49-5.35-1.48-7.62
	c-0.99-2.27-2.36-4.21-4.11-5.81c-1.75-1.6-3.81-2.85-6.18-3.74c-2.37-0.89-4.94-1.33-7.7-1.33c-3.41,0-6.5,0.6-9.29,1.81
	c-2.79,1.21-5.31,2.84-7.55,4.89c-2.25,2.05-4.21,4.42-5.89,7.11c-1.68,2.69-3.07,5.52-4.18,8.48c-1.11,2.96-1.94,5.98-2.48,9.07
	c-0.54,3.08-0.81,6.01-0.81,8.77c0,1.03,0.04,2.04,0.11,3.05c-1.32,1.04-2.62,2.03-3.89,2.95c-1.18,0.84-2.41,1.67-3.66,2.48
	c-1.26,0.81-2.5,1.54-3.74,2.18c-1.23,0.64-2.41,1.15-3.52,1.52c-1.11,0.37-2.13,0.56-3.07,0.56c-0.99,0-1.81-0.3-2.48-0.89
	c-0.67-0.59-1.2-1.39-1.59-2.41s-0.68-2.16-0.85-3.44c-0.17-1.28-0.26-2.64-0.26-4.07c0-1.14,0.07-2.31,0.22-3.52
	c0.15-1.21,0.33-2.39,0.56-3.55c0.22-1.16,0.46-2.23,0.7-3.22c0.25-0.99,0.49-1.83,0.74-2.52c2.57-6.22,5.21-12.21,7.92-17.99
	c2.71-5.77,5.23-11.6,7.55-17.47c2.32-5.87,4.34-11.91,6.07-18.1c1.73-6.19,2.91-12.77,3.55-19.73c0.15-1.83,0.22-3.6,0.22-5.33
	c0-2.81-0.22-5.54-0.67-8.18c-0.44-2.64-1.17-4.96-2.18-6.96c-1.01-2-2.33-3.6-3.96-4.81c-1.63-1.21-3.6-1.81-5.92-1.81
	c-3.16,0-6.22,0.97-9.18,2.92c-2.96,1.95-5.75,4.65-8.37,8.11c-2.62,3.45-5.02,7.55-7.22,12.29c-2.2,4.74-4.11,9.9-5.74,15.47
	c-1.63,5.58-2.94,11.45-3.92,17.62c-0.99,6.17-1.55,12.41-1.7,18.73c-3.75,0.35-7.28,1.21-10.59,2.59
	c-3.31,1.38-6.37,3.12-9.18,5.22c-2.81,2.1-5.33,4.49-7.55,7.18c-0.28,0.34-0.55,0.7-0.82,1.05c-1.12-1.24-2.26-2.47-3.44-3.67
	c-3.08-3.16-6.42-5.96-9.99-8.4c-3.58-2.44-7.42-4.39-11.51-5.85c-4.1-1.46-8.49-2.18-13.18-2.18c-5.48,0-10.41,1-14.81,3
	s-8.11,4.74-11.14,8.22c-3.04,3.48-5.37,7.58-7,12.29c-1.63,4.71-2.44,9.78-2.44,15.21c0,3.27,0.33,6.5,0.96,9.69
	c-2.55,3.05-4.87,5.6-6.95,7.63c-2.12,2.07-4.05,3.73-5.77,4.96c-1.73,1.23-3.33,2.27-4.81,3.11c1.28-8.39,2.54-16.24,3.78-23.54
	c0.49-3.11,1.01-6.23,1.55-9.36c0.54-3.13,1.07-6.11,1.59-8.92c0.52-2.81,1-5.33,1.44-7.55c0.44-2.22,0.81-3.97,1.11-5.26
	c0.15-0.59,0.22-1.11,0.22-1.55c0-1.43-0.52-2.48-1.55-3.15c-1.04-0.67-2.32-1-3.85-1c-1.28,0-2.64,0.22-4.07,0.67
	c-1.43,0.44-2.8,1.11-4.11,2c-1.31,0.89-2.47,1.99-3.48,3.29c-1.01,1.31-1.71,2.8-2.11,4.48l-5.18,21.76
	c-0.2,1.58-0.63,3.55-1.3,5.92c-0.67,2.37-1.54,4.66-2.63,6.88c-1.09,2.22-2.37,4.12-3.85,5.7c-1.48,1.58-3.13,2.37-4.96,2.37
	c-1.14,0-2.07-0.28-2.81-0.85c-0.74-0.57-1.33-1.31-1.78-2.22c-0.44-0.91-0.75-1.95-0.93-3.11c-0.17-1.16-0.26-2.36-0.26-3.59
	c0-2.37,0.2-5.11,0.59-8.22c0.39-3.11,0.93-6.28,1.59-9.51c0.67-3.23,1.43-6.39,2.29-9.48c0.86-3.08,1.74-5.76,2.63-8.03
	c0.3-0.74,0.51-1.43,0.63-2.07c0.12-0.64,0.19-1.23,0.19-1.78c0-1.83-0.62-3.17-1.85-4.03c-1.23-0.86-2.71-1.3-4.44-1.3
	c-2.02,0-4.1,0.58-6.22,1.74c-2.12,1.16-3.75,2.85-4.89,5.07c-1.53,3.11-2.89,6.18-4.07,9.22c-1.18,3.04-2.17,6.18-2.96,9.44
	c-0.79,3.26-1.39,6.69-1.81,10.29c-0.42,3.6-0.63,7.55-0.63,11.84c0,3.26,0.52,6.18,1.55,8.77c1.04,2.59,2.42,4.79,4.15,6.59
	c1.73,1.8,3.71,3.18,5.96,4.15c2.25,0.96,4.55,1.44,6.92,1.44c2.71,0,5.52-0.73,8.4-2.18c2.89-1.46,5.66-3.37,8.33-5.74l-2,6.88
	c-3.55,2.91-7.07,5.97-10.55,9.18c-3.48,3.21-6.81,6.47-9.99,9.77c-3.18,3.31-6.13,6.63-8.85,9.96c-2.71,3.33-5.06,6.54-7.03,9.62
	c-1.97,3.08-3.53,6.02-4.66,8.81c-1.14,2.79-1.7,5.29-1.7,7.51c0,3.21,0.54,5.77,1.63,7.7c1.09,1.92,2.46,3.41,4.11,4.44
	c1.65,1.04,3.45,1.73,5.4,2.07c1.95,0.35,3.76,0.52,5.44,0.52c4.24,0,8.12-0.73,11.62-2.18c3.5-1.46,6.67-3.49,9.51-6.11
	c2.84-2.62,5.38-5.75,7.62-9.4c2.25-3.65,4.24-7.66,6-12.03s3.27-9.06,4.55-14.07c1.28-5.01,2.39-10.15,3.33-15.43
	c4.84-2.96,9.35-6.02,13.55-9.18c1.78-1.33,3.59-2.75,5.44-4.26c1.85-1.51,3.63-3.06,5.33-4.66c0.31-0.3,0.6-0.59,0.9-0.89
	c1.89,2.69,4.21,4.93,7.02,6.66c3.08,1.9,6.8,2.85,11.14,2.85c3.01,0,5.85-0.52,8.51-1.55c2.67-1.04,5.12-2.44,7.37-4.22
	c2.25-1.78,4.24-3.87,6-6.29c1.75-2.42,3.23-5.01,4.44-7.77c1.21-2.76,2.13-5.63,2.78-8.59c0.64-2.96,0.96-5.9,0.96-8.81
	c0-2.91-0.36-5.96-1.07-9.14c-0.72-3.18-1.79-6.21-3.22-9.07l0.59-0.81c1.78,1.18,3.9,2.65,6.37,4.4c2.47,1.75,4.97,3.61,7.51,5.59
	c1.33,1.03,2.61,2.07,3.86,3.13c-1.48,2.95-2.63,5.99-3.42,9.12c-0.81,3.23-1.22,6.43-1.22,9.59c0,3.11,0.38,6.12,1.15,9.03
	c0.76,2.91,1.92,5.52,3.48,7.81c1.55,2.29,3.5,4.13,5.85,5.52c2.34,1.38,5.12,2.07,8.33,2.07c2.27,0,4.53-0.36,6.77-1.07
	c2.25-0.72,4.47-1.67,6.66-2.85c2.2-1.18,4.32-2.58,6.37-4.18c2.05-1.6,3.99-3.29,5.81-5.07c1.18,2.86,2.58,5.16,4.18,6.88
	c1.6,1.73,3.21,3.05,4.81,3.96c1.6,0.91,3.08,1.52,4.44,1.81c1.36,0.3,2.38,0.44,3.07,0.44c1.23,0,2.58-0.21,4.03-0.63
	c1.46-0.42,2.95-0.96,4.48-1.63c1.53-0.67,3.08-1.43,4.66-2.29c1.58-0.86,3.08-1.74,4.52-2.63c2.64-1.64,5.31-3.47,8.01-5.47
	c0.71,1.2,1.48,2.36,2.36,3.44c2.32,2.84,5.22,5.1,8.7,6.77c3.48,1.68,7.54,2.52,12.18,2.52c2.96,0,5.89-0.33,8.77-1
	c2.89-0.67,5.68-1.55,8.37-2.66c2.69-1.11,5.26-2.38,7.7-3.81c2.44-1.43,4.73-2.89,6.85-4.37c1.33-0.94,2.63-1.92,3.91-2.93
	c0.24,0.61,0.46,1.24,0.71,1.82c1.7,3.95,3.7,7.09,6,9.44c2.29,2.34,4.77,3.52,7.44,3.52c1.68,0,3.48-0.23,5.4-0.7
	c1.92-0.47,3.9-1.1,5.92-1.89c2.02-0.79,4.03-1.69,6.03-2.7c2-1.01,3.94-2.04,5.81-3.07c4.29-2.47,8.64-5.28,13.03-8.44l-6.07-15.55
	c-3.41,2.71-6.66,5.11-9.77,7.18c-1.33,0.89-2.71,1.76-4.15,2.63c-1.43,0.86-2.83,1.63-4.18,2.29c-1.36,0.67-2.64,1.2-3.85,1.59
	c-1.21,0.39-2.28,0.59-3.22,0.59c-0.39,0-0.81-0.28-1.26-0.85c-0.44-0.57-0.86-1.33-1.26-2.29c-0.39-0.96-0.73-2.05-1-3.26
	c-0.27-1.21-0.41-2.46-0.41-3.74v-1.04C554.3,303.63,554.5,302.62,554.75,301.58z M290.1,359.55c-0.69,2.52-1.53,5.1-2.52,7.74
	c-0.99,2.64-2.12,5.22-3.41,7.74c-1.28,2.52-2.7,4.76-4.26,6.74c-1.55,1.97-3.26,3.57-5.11,4.77c-1.85,1.21-3.81,1.81-5.89,1.81
	c-1.97,0-2.96-0.91-2.96-2.74c0-1.14,0.37-2.57,1.11-4.29c0.74-1.73,1.75-3.59,3.04-5.59s2.78-4.08,4.48-6.26
	c1.7-2.17,3.5-4.28,5.4-6.33s3.85-3.96,5.85-5.74c2-1.78,3.96-3.31,5.89-4.59C291.33,354.78,290.79,357.03,290.1,359.55z
	 M368.83,302.06c-0.72,3.13-1.67,6-2.85,8.59c-1.18,2.59-2.57,4.74-4.15,6.44c-1.58,1.7-3.21,2.55-4.89,2.55
	c-1.92,0-3.58-0.41-4.96-1.22c-1.38-0.81-2.49-1.9-3.33-3.26c-0.84-1.36-1.46-2.95-1.85-4.77c-0.39-1.83-0.59-3.78-0.59-5.85
	c0-3.01,0.39-6.14,1.18-9.4c0.79-3.26,1.88-6.23,3.26-8.92c1.38-2.69,2.99-4.9,4.81-6.63s3.75-2.59,5.77-2.59
	c1.53,0,2.84,0.42,3.92,1.26c1.09,0.84,1.97,1.97,2.67,3.41c0.69,1.43,1.21,3.12,1.55,5.07c0.35,1.95,0.52,4.06,0.52,6.33
	C369.9,295.93,369.54,298.93,368.83,302.06z M428.9,310.54c-0.59,0.99-1.25,1.94-1.96,2.85c-0.72,0.91-1.47,1.73-2.26,2.44
	c-0.79,0.72-1.62,1.3-2.48,1.74c-0.86,0.44-1.74,0.67-2.63,0.67c-1.73,0-3.13-0.25-4.22-0.74c-1.09-0.49-1.92-1.14-2.52-1.92
	c-0.59-0.79-1-1.68-1.22-2.67c-0.22-0.99-0.33-1.97-0.33-2.96c0-2.47,0.44-5.23,1.33-8.29c0.89-3.06,2.18-6.09,3.89-9.11
	c1.7-3.01,3.82-5.81,6.37-8.4c2.54-2.59,5.44-4.68,8.7-6.26c0.05-0.05,0.1,0.44,0.15,1.48c0.05,1.04,0.09,2.37,0.11,4
	c0.02,1.63,0.06,3.43,0.11,5.4c0.05,1.97,0.1,3.89,0.15,5.74c0.05,1.85,0.12,3.53,0.22,5.03c0.1,1.51,0.22,2.6,0.37,3.29
	C431.54,305.7,430.28,308.27,428.9,310.54z M449.33,278.12v-3.92c0-1.38,0.02-3,0.07-4.85c0.05-1.85,0.14-3.9,0.26-6.14
	c0.12-2.25,0.28-4.58,0.48-7c0.1-1.18,0.3-3.18,0.59-6s0.69-5.97,1.18-9.48c0.49-3.5,1.11-7.13,1.85-10.88
	c0.74-3.75,1.6-7.18,2.59-10.29c0.99-3.11,2.12-5.66,3.41-7.66c1.28-2,2.71-3,4.29-3c0.89,0,1.57,0.52,2.04,1.55
	c0.47,1.04,0.7,2.89,0.7,5.55c0,2.02-0.15,4.76-0.44,8.22c-0.25,2.62-0.68,5.38-1.3,8.29c-0.62,2.91-1.34,5.87-2.18,8.88
	c-0.84,3.01-1.76,6.01-2.78,8.99c-1.01,2.99-2.01,5.84-3,8.55C454.74,265.31,452.15,271.7,449.33,278.12z M493.68,295.14
	c0.1-1.53,0.31-3.11,0.63-4.74c0.32-1.63,0.79-3.24,1.41-4.85c0.62-1.6,1.43-3.04,2.44-4.29c1.01-1.26,2.27-2.28,3.78-3.07
	c1.51-0.79,3.32-1.18,5.44-1.18c1.18,0,2.18,0.72,3,2.15c0.81,1.43,1.22,3.26,1.22,5.48c0,1.58-0.62,3.21-1.85,4.89
	c-1.23,1.68-2.75,3.23-4.55,4.66c-1.8,1.43-3.75,2.6-5.85,3.52c-2.1,0.91-4.03,1.37-5.81,1.37
	C493.53,297.98,493.58,296.67,493.68,295.14z M553.19,274.64c0-4.74,0.35-9.61,1.04-14.62c0.69-5.01,1.63-9.88,2.81-14.62
	c1.18-4.74,2.53-9.2,4.03-13.4c1.51-4.19,3.08-7.87,4.74-11.03c1.65-3.16,3.31-5.66,4.96-7.51c1.65-1.85,3.2-2.78,4.63-2.78
	c0.39,0,0.63,0.51,0.7,1.52c0.07,1.01,0.11,2.23,0.11,3.66c-0.44,4.49-1.48,9.34-3.11,14.55c-1.63,5.21-3.55,10.43-5.77,15.66
	c-2.22,5.23-4.58,10.31-7.07,15.25C557.77,266.25,555.41,270.69,553.19,274.64z"/>
</svg>
