<?xml version="1.0" encoding="UTF-8"?>
<svg width="142px" height="142px" viewBox="0 0 142 142" version="1.1" xmlns="http://www.w3.org/2000/svg" xmlns:xlink="http://www.w3.org/1999/xlink">
    <!-- Generator: Sketch 54.1 (76490) - https://sketchapp.com -->
    <title>Placeholder-site</title>
    <desc>Created with Sketch.</desc>
    <defs>
        <circle id="path-1" cx="71" cy="71" r="71"></circle>
    </defs>
    <g id="Designs" stroke="none" stroke-width="1" fill="none" fill-rule="evenodd">
        <g id="Placeholder-site">
            <g id="Fill-1">
                <mask id="mask-2" fill="white">
                    <use xlink:href="#path-1"></use>
                </mask>
                <use id="Mask" fill="#EEEFF9" xlink:href="#path-1"></use>
            </g>
            <path d="M71.0075038,31 C54.4803709,31 41,44.7414362 41,64.0082541 C41,88.6194085 58.0202561,102.5839 69.2880738,110.457869 C70.3195317,111.18071 71.6948756,111.18071 72.7264336,110.457869 C83.9952515,102.584801 101.014507,88.6204087 101.014507,64.0122551 C101.014507,44.7454372 87.5341364,31.004001 71.0070036,31.004001 L71.0075038,31 Z M71.0075038,45.0035018 C62.2045025,45.0035018 55.0035018,52.2045025 55.0035018,61.0075038 C55.0035018,69.8105051 62.2045025,77.0115058 71.0075038,77.0115058 C79.8105051,77.0115058 87.0115058,69.8105051 87.0115058,61.0075038 C87.0115058,52.2045025 79.8105051,45.0035018 71.0075038,45.0035018 Z M71.0075038,51.0050025 C76.5674941,51.0050025 81.010005,55.4475134 81.010005,61.0075038 C81.010005,66.5674941 76.5674941,71.010005 71.0075038,71.010005 C65.4475134,71.010005 61.0050025,66.5674941 61.0050025,61.0075038 C61.0050025,55.4475134 65.4475134,51.0050025 71.0075038,51.0050025 Z" id="Fill-1" fill="#AAB1B9"></path>
        </g>
    </g>
</svg>